<svg width="53" height="52" viewBox="0 0 53 52" fill="none" xmlns="http://www.w3.org/2000/svg">
<path d="M10.3119 10.4004H44.7619C48.0119 10.4004 49.6499 11.9344 49.6499 15.0544V36.9464C49.6499 40.0404 48.0119 41.6004 44.7619 41.6004H10.3119C7.06194 41.6004 5.42394 40.0404 5.42394 36.9464V15.0544C5.42394 11.9344 7.06194 10.4004 10.3119 10.4004ZM27.5239 32.7604L45.0479 18.3824C45.6719 17.8624 46.1659 16.6664 45.3859 15.6004C44.6319 14.5344 43.2539 14.5084 42.3439 15.1584L27.5239 25.1944L12.7299 15.1584C11.8199 14.5084 10.4419 14.5344 9.68794 15.6004C8.90794 16.6664 9.40194 17.8624 10.0259 18.3824L27.5239 32.7604Z" fill="#245995"/>
</svg>
