<svg width="48" height="48" viewBox="0 0 48 48" fill="none" xmlns="http://www.w3.org/2000/svg">
<path d="M23.5616 12.3633C16.877 12.3633 11.4852 17.7552 11.4852 24.4397C11.4852 31.1243 16.877 36.5161 23.5616 36.5161C30.2462 36.5161 35.638 31.1243 35.638 24.4397C35.638 17.7552 30.2462 12.3633 23.5616 12.3633ZM23.5616 32.291C19.2418 32.291 15.7103 28.77 15.7103 24.4397C15.7103 20.1095 19.2313 16.5885 23.5616 16.5885C27.8918 16.5885 31.4128 20.1095 31.4128 24.4397C31.4128 28.77 27.8813 32.291 23.5616 32.291ZM38.9487 11.8694C38.9487 13.4354 37.6875 14.6861 36.132 14.6861C34.5659 14.6861 33.3152 13.4249 33.3152 11.8694C33.3152 10.3138 34.5764 9.05259 36.132 9.05259C37.6875 9.05259 38.9487 10.3138 38.9487 11.8694ZM46.9471 14.7282C46.7684 10.955 45.9066 7.61267 43.1424 4.85896C40.3887 2.10524 37.0464 1.2434 33.2731 1.05421C29.3843 0.833493 17.7283 0.833493 13.8395 1.05421C10.0768 1.23289 6.73451 2.09473 3.97029 4.84845C1.20606 7.60216 0.354724 10.9445 0.165538 14.7177C-0.0551793 18.6065 -0.0551793 30.2625 0.165538 34.1513C0.344214 37.9245 1.20606 41.2668 3.97029 44.0205C6.73451 46.7742 10.0663 47.6361 13.8395 47.8253C17.7283 48.046 29.3843 48.046 33.2731 47.8253C37.0464 47.6466 40.3887 46.7848 43.1424 44.0205C45.8961 41.2668 46.7579 37.9245 46.9471 34.1513C47.1678 30.2625 47.1678 18.617 46.9471 14.7282ZM41.9232 38.3239C41.1034 40.3839 39.5163 41.971 37.4458 42.8013C34.3452 44.031 26.988 43.7473 23.5616 43.7473C20.1352 43.7473 12.7675 44.0205 9.67741 42.8013C7.61738 41.9815 6.03031 40.3945 5.2 38.3239C3.97029 35.2234 4.25407 27.8661 4.25407 24.4397C4.25407 21.0134 3.9808 13.6456 5.2 10.5556C6.0198 8.49554 7.60687 6.90848 9.67741 6.07816C12.778 4.84845 20.1352 5.13223 23.5616 5.13223C26.988 5.13223 34.3557 4.85896 37.4458 6.07816C39.5058 6.89797 41.0928 8.48503 41.9232 10.5556C43.1529 13.6561 42.8691 21.0134 42.8691 24.4397C42.8691 27.8661 43.1529 35.2339 41.9232 38.3239Z" fill="#245995"/>
</svg>
