<svg width="48" height="48" viewBox="0 0 48 48" fill="none" xmlns="http://www.w3.org/2000/svg">
<path d="M44.0854 0.710938H3.69266C1.8418 0.710938 0.337982 2.23579 0.337982 4.10768V44.4269C0.337982 46.2987 1.8418 47.8236 3.69266 47.8236H44.0854C45.9363 47.8236 47.4506 46.2987 47.4506 44.4269V4.10768C47.4506 2.23579 45.9363 0.710938 44.0854 0.710938ZM14.5769 41.0932H7.59417V18.6095H14.5875V41.0932H14.5769ZM11.0856 15.5388C8.8456 15.5388 7.03681 13.7195 7.03681 11.4901C7.03681 9.26062 8.8456 7.44132 11.0856 7.44132C13.315 7.44132 15.1343 9.26062 15.1343 11.4901C15.1343 13.73 13.3255 15.5388 11.0856 15.5388ZM40.7518 41.0932H33.769V30.1563C33.769 27.5483 33.7165 24.1937 30.1409 24.1937C26.5023 24.1937 25.945 27.033 25.945 29.9671V41.0932H18.9622V18.6095H25.661V21.6803H25.7557C26.6916 19.9136 28.9736 18.0522 32.3704 18.0522C39.4373 18.0522 40.7518 22.7109 40.7518 28.7682V41.0932Z" fill="#245995"/>
</svg>
