<svg width="41" height="40" viewBox="0 0 41 40" fill="none" xmlns="http://www.w3.org/2000/svg">
<path d="M21.7774 11.6673H18.4441V18.334H11.7774V21.6673H18.4441V28.334H21.7774V21.6673H28.4441V18.334H21.7774V11.6673ZM20.1108 3.33398C10.9108 3.33398 3.44409 10.8007 3.44409 20.0007C3.44409 29.2007 10.9108 36.6674 20.1108 36.6674C29.3108 36.6674 36.7775 29.2007 36.7775 20.0007C36.7775 10.8007 29.3108 3.33398 20.1108 3.33398ZM20.1108 33.334C12.7608 33.334 6.77743 27.3507 6.77743 20.0007C6.77743 12.6507 12.7608 6.66732 20.1108 6.66732C27.4608 6.66732 33.4441 12.6507 33.4441 20.0007C33.4441 27.3507 27.4608 33.334 20.1108 33.334Z" fill="#282828"/>
</svg>
