<svg width="31" height="30" viewBox="0 0 31 30" fill="none" xmlns="http://www.w3.org/2000/svg">
<path d="M13.1461 2.29527L14.6051 0.836351C15.2228 0.218612 16.2217 0.218612 16.8329 0.836351L29.6082 13.6051C30.226 14.2229 30.226 15.2218 29.6082 15.8329L16.8329 28.6083C16.2151 29.226 15.2162 29.226 14.6051 28.6083L13.1461 27.1494C12.5218 26.5251 12.535 25.5065 13.1724 24.8953L21.0913 17.351H2.20428C1.33025 17.351 0.627075 16.6478 0.627075 15.7738V13.6709C0.627075 12.7968 1.33025 12.0937 2.20428 12.0937H21.0913L13.1724 4.54935C12.5284 3.93819 12.5153 2.91958 13.1461 2.29527Z" fill="#FFFFFF"/>
</svg>
