<svg width="30" height="30" viewBox="0 0 30 30" fill="none" xmlns="http://www.w3.org/2000/svg">
<path d="M27.1493 12.5191L28.6082 13.978C29.2259 14.5957 29.2259 15.5946 28.6082 16.2058L15.8394 28.9811C15.2217 29.5989 14.2228 29.5989 13.6116 28.9811L0.836229 16.2058C0.21849 15.588 0.21849 14.5891 0.836229 13.978L2.29514 12.5191C2.91945 11.8948 3.93807 11.9079 4.54923 12.5454L12.0935 20.4642L12.0935 1.5772C12.0935 0.70317 12.7967 -3.82053e-08 13.6707 0L15.7737 9.19244e-08C16.6477 1.3013e-07 17.3509 0.703171 17.3509 1.57721V20.4642L24.8952 12.5454C25.5063 11.9013 26.525 11.8882 27.1493 12.5191Z" fill="#282828"/>
</svg>
