<svg width="32" height="41" viewBox="0 0 32 41" fill="none" xmlns="http://www.w3.org/2000/svg">
<path d="M14.2591 39.969C2.68293 23.187 0.53418 21.4646 0.53418 15.297C0.53418 6.84867 7.38285 0 15.8312 0C24.2795 0 31.1282 6.84867 31.1282 15.297C31.1282 21.4646 28.9794 23.187 17.4033 39.969C16.6436 41.0664 15.0187 41.0663 14.2591 39.969ZM15.8312 21.6707C19.3513 21.6707 22.2049 18.8171 22.2049 15.297C22.2049 11.7768 19.3513 8.92324 15.8312 8.92324C12.311 8.92324 9.45742 11.7768 9.45742 15.297C9.45742 18.8171 12.311 21.6707 15.8312 21.6707Z" fill="#245995"/>
</svg>
