<svg width="27" height="31" viewBox="0 0 27 31" fill="none" xmlns="http://www.w3.org/2000/svg">
<path d="M24.1071 13.5H22.6607V9.16071C22.6607 4.11027 18.5504 0 13.5 0C8.44955 0 4.33929 4.11027 4.33929 9.16071V13.5H2.89286C1.29576 13.5 0 14.7958 0 16.3929V27.9643C0 29.5614 1.29576 30.8571 2.89286 30.8571H24.1071C25.7042 30.8571 27 29.5614 27 27.9643V16.3929C27 14.7958 25.7042 13.5 24.1071 13.5ZM17.8393 13.5H9.16071V9.16071C9.16071 6.76808 11.1074 4.82143 13.5 4.82143C15.8926 4.82143 17.8393 6.76808 17.8393 9.16071V13.5Z" fill="#282828"/>
</svg>
