<svg width="31" height="31" viewBox="0 0 31 31" fill="none" xmlns="http://www.w3.org/2000/svg">
<path d="M30.0677 21.6188L23.3751 18.7505C23.0892 18.6287 22.7715 18.603 22.4697 18.6774C22.168 18.7517 21.8985 18.9221 21.702 19.1628L18.7381 22.784C14.0867 20.5909 10.3433 16.8475 8.15018 12.196L11.7713 9.23218C12.0125 9.036 12.1833 8.76656 12.2577 8.46466C12.3321 8.16277 12.3061 7.84485 12.1836 7.55905L9.3154 0.866502C9.18102 0.55841 8.94335 0.306864 8.64337 0.155238C8.34339 0.00361227 7.9999 -0.03859 7.67214 0.0359087L1.45763 1.47003C1.14163 1.543 0.859692 1.72092 0.657834 1.97477C0.455976 2.22861 0.346119 2.54337 0.346191 2.86769C0.346191 18.1948 12.7692 30.594 28.0725 30.594C28.3969 30.5942 28.7118 30.4844 28.9658 30.2825C29.2197 30.0806 29.3977 29.7986 29.4707 29.4825L30.9048 23.268C30.9789 22.9387 30.9358 22.5938 30.783 22.2928C30.6302 21.9918 30.3772 21.7534 30.0677 21.6188Z" fill="#245995"/>
</svg>
