<svg width="38" height="38" viewBox="0 0 38 38" fill="none" xmlns="http://www.w3.org/2000/svg">
<path d="M11.1294 17.3151H26.8701V20.4633H11.1294V17.3151ZM18.9998 3.14844C10.3109 3.14844 3.25903 10.2003 3.25903 18.8892C3.25903 27.5781 10.3109 34.6299 18.9998 34.6299C27.6887 34.6299 34.7405 27.5781 34.7405 18.8892C34.7405 10.2003 27.6887 3.14844 18.9998 3.14844ZM18.9998 31.4818C12.0581 31.4818 6.40718 25.8308 6.40718 18.8892C6.40718 11.9475 12.0581 6.29659 18.9998 6.29659C25.9414 6.29659 31.5924 11.9475 31.5924 18.8892C31.5924 25.8308 25.9414 31.4818 18.9998 31.4818Z" fill="#282828"/>
</svg>
