<svg width="32" height="32" viewBox="0 0 32 32" fill="none" xmlns="http://www.w3.org/2000/svg">
<path fill-rule="evenodd" clip-rule="evenodd" d="M21.9919 21.9895C22.4259 21.5556 23.1294 21.5556 23.5633 21.9895L30.7855 29.2117C31.2194 29.6456 31.2194 30.3492 30.7855 30.7831C30.3516 31.217 29.6481 31.217 29.2142 30.7831L21.9919 23.5608C21.558 23.1269 21.558 22.4234 21.9919 21.9895Z" fill="#282828"/>
<path fill-rule="evenodd" clip-rule="evenodd" d="M0 13.4921C0 6.0406 6.0406 0 13.4921 0C20.9435 0 26.9841 6.0406 26.9841 13.4921C26.9841 17.211 25.4781 20.5804 23.0451 23.0197L22.2584 22.2351L23.0451 23.0197C20.6038 25.4676 17.2239 26.9841 13.4921 26.9841C6.0406 26.9841 0 20.9435 0 13.4921ZM13.4921 2.22222C7.2679 2.22222 2.22222 7.2679 2.22222 13.4921C2.22222 19.7162 7.2679 24.7619 13.4921 24.7619C16.6098 24.7619 19.4303 23.4973 21.4717 21.4505L21.4717 21.4504C23.5061 19.4107 24.7619 16.5991 24.7619 13.4921C24.7619 7.2679 19.7162 2.22222 13.4921 2.22222Z" fill="#282828"/>
</svg>
