<svg width="41" height="40" viewBox="0 0 41 40" fill="none" xmlns="http://www.w3.org/2000/svg">
<path d="M20.5097 0C9.55156 0 0.673096 8.87846 0.673096 19.8366C0.673096 30.7947 9.55156 39.6731 20.5097 39.6731C31.4678 39.6731 40.3462 30.7947 40.3462 19.8366C40.3462 8.87846 31.4678 0 20.5097 0ZM20.5097 7.67867C24.397 7.67867 27.5484 10.8301 27.5484 14.7175C27.5484 18.6048 24.397 21.7562 20.5097 21.7562C16.6223 21.7562 13.4709 18.6048 13.4709 14.7175C13.4709 10.8301 16.6223 7.67867 20.5097 7.67867ZM20.5097 35.1939C15.8145 35.1939 11.6072 33.0663 8.79169 29.7388C10.2954 26.9073 13.2389 24.9557 16.6703 24.9557C16.8623 24.9557 17.0543 24.9877 17.2382 25.0437C18.278 25.3796 19.3659 25.5956 20.5097 25.5956C21.6535 25.5956 22.7493 25.3796 23.7811 25.0437C23.9651 24.9877 24.157 24.9557 24.349 24.9557C27.7804 24.9557 30.7239 26.9073 32.2276 29.7388C29.4121 33.0663 25.2048 35.1939 20.5097 35.1939Z" fill="#245995"/>
</svg>
